<svg width="15px" height="15px" viewBox="0 0 15 15" version="1.1" xmlns="http://www.w3.org/2000/svg" xmlns:xlink="http://www.w3.org/1999/xlink" class="hf-productnav__feature-icon">
                                                    <title>Travel</title>
                                                    <g id="Solution-for-Helpdesk" stroke="none" stroke-width="1" fill="none" fill-rule="evenodd">
                                                        <g id="Help-Desk-_Solutions" transform="translate(-895.000000, -227.000000)">
                                                            <g id="Travel" transform="translate(895.000000, 227.000000)">
                                                                <polygon id="Path" points="0 0 15 0 15 15 0 15"/>
                                                                <path d="M4,4 L4,13 L2.10815342,13 C1.81419826,13.0003072 1.53215635,12.8933668 1.32423569,12.7027531 C1.11631223,12.5121316 0.999672761,12.2535741 1,11.9839846 L1,11.9839846 L1,5.02112022 C0.999580914,4.75101762 1.1160016,4.49186741 1.32370397,4.30045323 C1.53152109,4.10903648 1.81366655,4.00100216 2.10815342,4 L2.10815342,4 L4,4 Z M12.8918742,4 C13.186361,4.00100056 13.468512,4.10903811 13.6763235,4.30045066 C13.8840147,4.49186577 14.000436,4.75103685 14,5.02111149 L14,5.02111149 L14,11.9839933 C14.0003346,12.2535805 13.8836845,12.5121435 13.6757638,12.7027556 C13.4678348,12.8933703 13.1858013,13.0003 12.8918462,13 L12.8918462,13 L11,13 L11,4 Z M8.34817073,1 C8.78589246,1.00114666 9.20532151,1.16895925 9.51485588,1.46677126 C9.82439302,1.76458327 9.99880906,2.16812814 10,2.5893796 L10,2.5893796 L10,13 L5,13 L5.01104324,2.5893796 C5.01212417,2.16815481 5.18643126,1.76450327 5.4960765,1.46658459 C5.80561086,1.16877525 6.22515078,1.00096416 6.66298337,1 L6.66298337,1 Z M8.34818016,2.06669126 L6.66300831,2.06669126 C6.51900333,2.06700326 6.38096563,2.12210701 6.27919457,2.22012791 C6.17731541,2.31804748 6.12004321,2.45086555 6.1197184,2.58940627 L6.1197184,2.58940627 L6.1197184,3.5120155 L8.89136197,3.5120155 L8.89136197,2.58940627 C8.89103769,2.45085489 8.83376497,2.31804481 8.7319939,2.22012791 C8.6301092,2.12210701 8.49217406,2.06700376 8.34818016,2.06669126 L8.34818016,2.06669126 Z" id="Combined-Shape" fill="#08C6CB" fill-rule="nonzero"/>
                                                            </g>
                                                        </g>
                                                    </g>
                                                </svg>