<svg xmlns="http://www.w3.org/2000/svg" width="15" height="15" class="hf-productnav__feature-icon" viewBox="0 0 15 15">
                <g fill="none" fill-rule="evenodd">
                    <path d="M0 0L15 0 15 15 0 15z"/>
                    <path fill="#438AD8" fill-rule="nonzero" d="M7.5 13.75c-3.452 0-6.25-2.798-6.25-6.25S4.048 1.25 7.5 1.25s6.25 2.798 6.25 6.25-2.798 6.25-6.25 6.25zm-.625-4.375v1.25h1.25v-1.25h-1.25zm1.25-1.028c1.038-.313 1.69-1.339 1.534-2.412-.156-1.073-1.075-1.87-2.159-1.872-1.043 0-1.94.735-2.146 1.758l1.227.245c.096-.484.552-.81 1.042-.745.49.064.845.498.812.99-.032.493-.441.876-.935.877-.345 0-.625.28-.625.625v.937h1.25v-.403z"/>
                </g>
            </svg>