<svg width="15px" height="15px" viewBox="0 0 15 15" version="1.1" xmlns="http://www.w3.org/2000/svg" xmlns:xlink="http://www.w3.org/1999/xlink" class="hf-productnav__feature-icon">
                                                    <title>GOV</title>
                                                    <g id="Solution-for-Helpdesk" stroke="none" stroke-width="1" fill="none" fill-rule="evenodd">
                                                        <g id="Help-Desk-_Solutions" transform="translate(-895.000000, -340.000000)">
                                                            <g id="GOV" transform="translate(895.000000, 340.000000)">
                                                                <polygon id="Path" points="0 0 15 0 15 15 0 15"/>
                                                                <path d="M13.6911121,6.19421272 C13.8074378,6.19391871 13.9189617,6.14746618 14.0011752,6.06524515 C14.0833887,5.98302413 14.1298492,5.87149777 14.1301427,5.7551821 L14.1301427,3.55997884 C14.1297507,3.46981745 14.101723,3.38200932 14.0499789,3.30822039 C13.998137,3.23442643 13.925028,3.17827188 13.8403558,3.14730321 L7.69378642,0.952099949 C7.59735301,0.916918994 7.49170979,0.916918994 7.39528894,0.952099949 L1.24871952,3.14730321 C1.16404739,3.17827188 1.09093834,3.23442643 1.03909641,3.30822039 C0.987352334,3.38201434 0.959323978,3.46982247 0.958932604,3.55997884 L0.958932604,5.7551821 C0.959226611,5.8715078 1.00567915,5.98303165 1.08790017,6.06524515 C1.1701212,6.14745865 1.28164757,6.19391919 1.39796324,6.19421272 L2.27604459,6.19421272 L2.27604459,11.4627005 L1.39796324,11.4627005 C1.28163753,11.4629945 1.17011368,11.5094471 1.08790017,11.5916681 C1.00568667,11.6738891 0.959226134,11.7854155 0.958932604,11.9017312 L0.958932604,13.6578938 C0.959226611,13.7742195 1.00567915,13.8857433 1.08790017,13.9679568 C1.1701212,14.0501703 1.28164757,14.0966308 1.39796324,14.0969244 L13.6911021,14.0969244 C13.8074278,14.0966304 13.9189516,14.0501778 14.0011651,13.9679568 C14.0833786,13.8857358 14.1298392,13.7742094 14.1301427,13.6578938 L14.1301427,11.9017312 C14.1298387,11.7854055 14.0833862,11.6738816 14.0011651,11.5916681 C13.9189441,11.5094546 13.8074177,11.4629941 13.6911021,11.4627005 L12.8130207,11.4627005 L12.8130207,6.19421272 L13.6911121,6.19421272 Z M8.86165869,11.4626823 L8.86165869,6.19419829 L9.9153555,6.19419829 L9.9153555,11.4626823 L8.86165869,11.4626823 Z M5.17371985,6.19419829 L6.22741666,6.19419829 L6.22741666,11.4626823 L5.17371985,11.4626823 L5.17371985,6.19419829 Z" id="Shape" fill="#588DF8" fill-rule="nonzero"/>
                                                            </g>
                                                        </g>
                                                    </g>
                                                </svg>