<svg width="15px" height="15px" viewBox="0 0 15 15" version="1.1" xmlns="http://www.w3.org/2000/svg" xmlns:xlink="http://www.w3.org/1999/xlink" class="hf-productnav__feature-icon">
                                       <title>IT</title>
                                       <g id="Solution-for-Helpdesk" stroke="none" stroke-width="1" fill="none" fill-rule="evenodd">
                                           <g id="Help-Desk-_Solutions" transform="translate(-212.000000, -340.000000)">
                                               <g id="IT" transform="translate(212.000000, 340.000000)">
                                                   <polygon id="Path" points="0 0 15 0 15 15 0 15"/>
                                                   <path d="M13.0025682,10 L13.9382613,12.492987 C14.0712418,12.84743 13.9867548,13.2313011 13.7103585,13.5281525 C13.4339623,13.8250039 12.9982182,14 12.535214,14 L12.535214,14 L2.46485878,14 C2.00174297,14 1.56600452,13.8249972 1.28960267,13.5280633 C1.01319804,13.2311963 0.928730605,12.8472516 1.06180874,12.4928086 L1.06180874,12.4928086 L1.9974991,10 L13.0025682,10 Z M8.33918339,12.4388895 L6.66071644,12.4388895 C6.45853646,12.4388895 6.29450395,12.5698963 6.29450395,12.7315643 C6.29450395,12.8932322 6.45853646,13.024239 6.66071644,13.024239 L6.66071644,13.024239 L8.33918339,13.024239 C8.5414722,13.024239 8.70539589,12.8932322 8.70539589,12.7315643 C8.70539589,12.5698963 8.5414722,12.4388895 8.33918339,12.4388895 L8.33918339,12.4388895 Z M11.5,1 C11.8976286,1.0004501 12.2790057,1.15616288 12.5601429,1.4330825 C12.8414057,1.70986708 12.9995536,2.08536465 13,2.47689711 L13,2.47689711 L13,9 L2,9 L2,2.47689711 C2.00045714,2.08539278 2.15860571,1.70988958 2.43985714,1.4330825 C2.72097143,1.15615163 3.10234286,1.00043955 3.5,1 L3.5,1 Z" id="Combined-Shape" fill="#6193D5" fill-rule="nonzero"/>
                                               </g>
                                           </g>
                                       </g>
                                   </svg>