<svg width="15px" height="15px" viewBox="0 0 15 15" version="1.1" xmlns="http://www.w3.org/2000/svg" xmlns:xlink="http://www.w3.org/1999/xlink" class="hf-productnav__feature-icon">
                                       <title>NGO</title>
                                       <g id="Solution-for-Helpdesk" stroke="none" stroke-width="1" fill="none" fill-rule="evenodd">
                                           <g id="Help-Desk-_Solutions" transform="translate(-212.000000, -450.000000)">
                                               <g id="NGO" transform="translate(212.000000, 450.000000)">
                                                   <polygon id="Path" points="0 0 15 0 15 15 0 15"/>
                                                   <path d="M9.92708019,10.6941945 C9.25406389,10.9120427 8.54386822,11.0224245 7.83407126,11.0224245 C7.68844875,11.0224245 7.5430256,11.0177522 7.3979862,11.0082126 L7.3979862,13 L6.30777355,13 L6.30777355,9.44822424 C6.2152986,9.45348069 6.12243491,9.45620635 6.02977057,9.45620635 C5.42059712,9.45620635 4.81087545,9.3458245 4.24316746,9.13109123 C3.49579242,8.84880216 2.84301047,8.40355183 2.30276338,7.80803408 C1.76251629,7.21251632 1.38269866,6.51961454 1.17417524,5.74871583 C0.975016443,5.01360101 0.946010556,4.22864791 1.09046186,3.47893047 L1.12881392,3.27802235 L1.33264257,3.25894375 C2.09287589,3.18807868 2.8712005,3.29301271 3.58373857,3.56264834 C4.3307149,3.84493741 4.98349685,4.29018773 5.52374395,4.88570549 C6.06419039,5.48122325 6.44380866,6.17412503 6.65268095,6.94502374 C6.7439847,7.28240406 6.79966404,7.63049961 6.81874214,7.98071329 C6.84658131,7.87850492 6.87656453,7.77707901 6.90926841,7.67661997 C7.24022458,6.65338998 7.7962405,5.7463829 8.56170684,4.98086673 C9.32737253,4.21520104 10.2343796,3.65915521 11.2574601,3.3284283 C12.2331942,3.01246349 13.2868255,2.92232596 14.3046231,3.06736037 L14.5070912,3.09617288 L14.5359037,3.29864095 C14.6809431,4.31663791 14.5906112,5.37021942 14.2750301,6.34600334 C13.9438796,7.36923333 13.3878587,8.27589155 12.622193,9.04155723 C11.8572749,9.80702357 10.9502678,10.3630694 9.92703783,10.694195 L9.92708019,10.6941945 Z" id="Path" fill="#71AFCD" fill-rule="nonzero"/>
                                               </g>
                                           </g>
                                       </g>
                                   </svg>