<svg xmlns="http://www.w3.org/2000/svg" width="15" height="15" class="hf-productnav__feature-icon" viewBox="0 0 15 15">
                <g fill="none" fill-rule="evenodd">
                    <path d="M0 0L15 0 15 15 0 15z"/>
                    <path fill="#7C5AE0" fill-rule="nonzero" d="M12.5 1.25c.345 0 .625.28.625.625v2.348L7.501 9.848l-.004 2.649 2.654.004 2.974-2.975v3.599c0 .345-.28.625-.625.625h-10c-.345 0-.625-.28-.625-.625V1.875c0-.345.28-.625.625-.625h10zm1.111 4.255l.884.884-4.861 4.861-.885-.001.001-.883 4.861-4.861zM7.5 7.5H4.375v1.25H7.5V7.5zM9.375 5h-5v1.25h5V5z"/>
                </g>
            </svg>