<svg width="15px" height="15px" viewBox="0 0 15 15" version="1.1" xmlns="http://www.w3.org/2000/svg" xmlns:xlink="http://www.w3.org/1999/xlink" class="hf-productnav__feature-icon">
                                            <g id="Solution-for-Helpdesk" stroke="none" stroke-width="1" fill="none" fill-rule="evenodd">
                                                <g id="Help-Desk-_Solutions" transform="translate(-212.000000, -227.000000)">
                                                    <g id="Education" transform="translate(212.000000, 227.000000)">
                                                        <polygon id="Path" points="0 0 15 0 15 15 0 15"/>
                                                        <path d="M11.2413649,8.56107158 C11.6603891,8.38349543 12,8.60634326 12,9.05873095 L12,9.05873095 L12,10.6591836 C12,11.9519496 9.9852461,13 7.49981588,13 C5.01464343,13 3,11.9519496 3,10.6591836 L3,10.6591836 L3,9.05873095 C3,8.60635423 3.33962195,8.38351372 3.75863508,8.56107158 L3.75863508,8.56107158 L7.24750215,10.0402268 L7.37360746,10.0936496 C7.44322941,10.1230758 7.5562882,10.1230758 7.62590647,10.0936496 C7.69552473,10.0642248 7.75205597,10.0402268 7.75205597,10.0402268 L7.75205597,10.0402268 Z M6.76948369,2.13634469 C7.17300529,1.95455177 7.82710109,1.95455177 8.2306227,2.13634469 L8.2306227,2.13634469 L14.6974652,5.04619771 C15.1008449,5.22786728 15.1008449,5.52222057 14.6974652,5.70372192 L14.6974652,5.70372192 L14.25,5.904 L14.25,9.5 L13.5,9.5 L13.5,6.242 L11.8337703,6.99234228 L8.23048085,8.61387399 C7.82710109,8.79537534 7.17300529,8.79537534 6.76948369,8.61387399 L6.76948369,8.61387399 L0.302641207,5.70372192 C-0.100880402,5.52205236 -0.100880402,5.22769906 0.302641207,5.04619771 L0.302641207,5.04619771 Z" id="Combined-Shape" fill="#08C6CB" fill-rule="nonzero"/>
                                                    </g>
                                                </g>
                                            </g>
                                        </svg>