<svg width="15px" height="15px" viewBox="0 0 15 15" version="1.1" xmlns="http://www.w3.org/2000/svg" xmlns:xlink="http://www.w3.org/1999/xlink" class="hf-productnav__feature-icon"> 
                                       <title>Airline</title>
                                       <g id="Solution-for-Helpdesk" stroke="none" stroke-width="1" fill="none" fill-rule="evenodd">
                                           <g id="Help-Desk-_Solutions" transform="translate(-212.000000, -563.000000)">
                                               <g id="Airline" transform="translate(212.000000, 563.000000)">
                                                   <polygon id="Path" points="0 0 15 0 15 15 0 15"/>
                                                   <path d="M0.192914834,9.10179414 C-0.00575602321,9.27103203 -0.0572687642,9.5506486 0.0678230349,9.77871878 L1.4217396,12.1260233 C1.50267858,12.2658282 1.64984342,12.3688469 1.81172811,12.39092 L5.24068579,12.9207134 L5.32162477,12.9207134 C5.4172836,12.9207134 5.51294243,12.898639 5.59388142,12.8471276 L13.9158431,8.04218708 C14.9533637,7.44616779 15.3065593,6.12167746 14.7104996,5.08415691 C14.1144399,4.04663635 12.78999,3.69344072 11.7524694,4.28950039 L9.26536676,5.72434921 L4.79155551,4.14230191 C4.64439066,4.09079455 4.47515278,4.10551036 4.34270105,4.18645136 L2.47372436,5.26810455 C2.40749984,5.3048961 2.35599248,5.35640346 2.31184639,5.4152694 C2.13524858,5.65809307 2.17939467,5.99656885 2.42221834,6.17319357 L5.05645223,8.15256913 L3.57747078,9.00615886 L0.921170575,8.70446925 C0.774005731,8.68975276 0.626840887,8.73390221 0.516468936,8.82956105 L0.192914834,9.10179414 Z" id="Path" fill="#1B7DFD" fill-rule="nonzero"/>
                                               </g>
                                           </g>
                                       </g>
                                   </svg>