<svg xmlns="http://www.w3.org/2000/svg" width="15" height="15" class="hf-productnav__feature-icon" viewBox="0 0 15 15">
                                                <g fill="none" fill-rule="evenodd">
                                                    <path d="M0 0L15 0 15 15 0 15z"/>
                                                    <path fill="#DB0D0C" fill-rule="nonzero" d="M3.414 2.77C4.548 1.789 6 1.249 7.5 1.25c3.452 0 6.25 2.798 6.25 6.25 0 1.335-.419 2.572-1.131 3.588L10.625 7.5H12.5c0-2.004-1.196-3.814-3.04-4.6-1.843-.786-3.977-.395-5.423.993L3.414 2.77zm8.172 9.46C10.452 13.211 9 13.751 7.5 13.75c-3.452 0-6.25-2.798-6.25-6.25 0-1.335.419-2.572 1.131-3.587L4.375 7.5H2.5c0 2.004 1.196 3.814 3.04 4.6 1.843.786 3.977.395 5.423-.992l.623 1.121z"/>
                                                </g>
                                            </svg>