<svg width="15px" height="15px" viewBox="0 0 15 15" version="1.1" xmlns="http://www.w3.org/2000/svg" xmlns:xlink="http://www.w3.org/1999/xlink" class="hf-productnav__feature-icon">
                                                <title>Retail</title>
                                                <g id="Solution-for-Helpdesk" stroke="none" stroke-width="1" fill="none" fill-rule="evenodd">
                                                    <g id="Help-Desk-_Solutions" transform="translate(-550.000000, -228.000000)">
                                                        <g id="Retail" transform="translate(550.000000, 228.000000)">
                                                            <polygon id="Path" points="0 0 15 0 15 15 0 15"/>
                                                            <path d="M8.87945192,2.9517258 L8.19624537,2.9517258 L8.19624537,1 L6.79624537,1 L6.79624537,2.9517258 L6.09812268,2.9517258 L4,4.89999683 L4,14 L11,14 L11,4.89999683 L8.87945192,2.9517258 Z M7.40500047,4.76595097 C7.681888,4.76595097 7.90500047,4.98906589 7.90500047,5.26595097 C7.90500047,5.54283604 7.68188554,5.76595097 7.40500047,5.76595097 C7.12811539,5.76595097 6.90500047,5.54283604 6.90500047,5.26595097 C6.90500047,4.98906589 7.12811539,4.76595097 7.40500047,4.76595097 Z M8.76430381,11.8358832 L4.76787959,11.8358832 L4.76787959,10.8358832 L8.76787959,10.8358832 L8.76787959,11.8358832 L8.76430381,11.8358832 Z" id="Shape" fill="#E75353" fill-rule="nonzero" transform="translate(7.500000, 7.500000) rotate(29.000000) translate(-7.500000, -7.500000) "/>
                                                        </g>
                                                    </g>
                                                </g>
                                            </svg>