<svg xmlns="http://www.w3.org/2000/svg" width="15" height="15" class="hf-productnav__feature-icon" viewBox="0 0 15 15">
                                                <g fill="none" fill-rule="evenodd">
                                                    <path d="M0 0L15 0 15 15 0 15z"/>
                                                    <path fill="#7C5AE0" fill-rule="nonzero" d="M11.875 3.75h-5c-.345 0-.625.28-.625.625V12.5H2.5c-.345 0-.625-.28-.625-.625v-10c0-.345.28-.625.625-.625h8.75c.345 0 .625.28.625.625V3.75zM8.125 5h5c.345 0 .625.28.625.625v7.5c0 .345-.28.625-.625.625h-5c-.345 0-.625-.28-.625-.625v-7.5c0-.345.28-.625.625-.625z"/>
                                                </g>
                                            </svg>