<svg width="15px" height="15px" viewBox="0 0 15 15" version="1.1" xmlns="http://www.w3.org/2000/svg" xmlns:xlink="http://www.w3.org/1999/xlink" class="hf-productnav__feature-icon">
                                                <title>Health</title>
                                                <g id="Solution-for-Helpdesk" stroke="none" stroke-width="1" fill="none" fill-rule="evenodd">
                                                    <g id="Help-Desk-_Solutions" transform="translate(-551.000000, -450.000000)">
                                                        <g id="Health" transform="translate(551.000000, 450.000000)">
                                                            <polygon id="Path" points="0 0 15 0 15 15 0 15"/>
                                                            <g id="noun-heartbeat-4251580" transform="translate(1.000000, 2.000000)" fill="#EA3737" fill-rule="nonzero">
                                                                <path d="M2.26069625,5.38165193 L3.87516492,2.8330071 C3.98146157,2.66501635 4.16870925,2.56873672 4.36922578,2.58249599 C4.5670815,2.59575829 4.74214177,2.71639666 4.82526068,2.89676346 L6.76403146,7.12061287 L8.94023815,3.52600259 C9.04289818,3.3570285 9.23436091,3.26359328 9.42801165,3.26547948 C9.62586737,3.27451769 9.80359347,3.39083438 9.89033391,3.5688321 L10.6086524,5.03919444 L12.812951,5.03919444 C12.9292672,4.60664913 13,4.17988818 13,3.76462053 C13,1.68458532 11.3152889,0 9.24619373,0 C8.20063067,0 7.20408388,0.444139212 6.49987425,1.19175679 C5.79568977,0.44423981 4.79894179,0 3.75355478,0 C1.68443443,0 0,1.68461047 0,3.76462053 C0,4.29099843 0.103054884,4.83198816 0.289897661,5.38165445 L2.26069625,5.38165193 Z" id="Path"/>
                                                                <path d="M10.2700402,6.1225546 C10.0632439,6.1225546 9.87433886,6.00456849 9.78334817,5.818699 L9.3527645,4.93690913 L7.16171964,8.55616587 C7.06004043,8.72415662 6.87307945,8.82720145 6.66765878,8.81641233 C6.46714979,8.80501662 6.2899141,8.68388733 6.20583951,8.50164187 L4.25645567,4.25515796 L3.01598441,6.21316806 C2.91656613,6.37005784 2.7440686,6.46496431 2.55839024,6.46496431 L0.77524424,6.46496431 C1.94969821,8.5954996 4.42115939,10.6744785 6.27769147,11.7704914 C6.43349984,11.8679455 6.6485452,11.8756085 6.83550618,11.7704914 C8.89924455,10.494157 11.3488257,8.35544814 12.4128988,6.12217736 L10.2700402,6.1225546 Z" id="Path"/>
                                                            </g>
                                                        </g>
                                                    </g>
                                                </g>
                                            </svg>