<svg width="15px" height="15px" viewBox="0 0 15 15" version="1.1" xmlns="http://www.w3.org/2000/svg" xmlns:xlink="http://www.w3.org/1999/xlink" class="hf-productnav__feature-icon">
                                                <title>Realestate</title>
                                                <g id="Solution-for-Helpdesk" stroke="none" stroke-width="1" fill="none" fill-rule="evenodd">
                                                    <g id="Help-Desk-_Solutions" transform="translate(-551.000000, -564.000000)">
                                                        <g id="Realestate" transform="translate(551.000000, 564.000000)">
                                                            <polygon id="Path" points="0 0 15 0 15 15 0 15"/>
                                                            <path d="M14.0000094,6.83551007 L14.0000094,12.0499989 C13.9993272,12.5669534 13.7937366,13.0627366 13.4280976,13.4281854 C13.062622,13.7938125 12.5668354,13.9994057 12.0499221,14 L10.7499317,14 C10.2329813,13.9994196 9.7372021,13.7938273 9.37175625,13.4281854 C9.0061321,13.0627069 8.80054049,12.5669163 8.79994621,12.0499989 L8.79994621,10.7499981 C8.79965605,10.5776328 8.731173,10.4125216 8.60930076,10.2906521 C8.48742853,10.1687826 8.32231489,10.1002948 8.14995846,10.1000051 L6.84996811,10.1000051 C6.67760425,10.1002953 6.51249433,10.1687789 6.39062581,10.2906521 C6.26875728,10.4125253 6.20027008,10.5776403 6.19998036,10.7499981 L6.19998036,12.0499989 C6.19940001,12.5669534 5.99380932,13.0627366 5.62817032,13.4281854 C5.26269475,13.7938125 4.76690815,13.9994057 4.24999484,14 L2.95000449,14 C2.43305404,13.9994196 1.93727487,13.7938273 1.57182901,13.4281854 C1.20620487,13.0627069 1.00061325,12.5669163 1.00000944,12.0499989 L1.00000944,6.83551007 C0.99813283,6.23353543 1.27626692,5.66476652 1.75260195,5.29653202 L7.10113367,1.13652957 L7.10098856,1.13667465 C7.21517228,1.04802574 7.35547467,1 7.49997417,1 C7.64447367,1 7.78478348,1.04802574 7.89895978,1.13667465 L13.2471201,5.29630567 C13.7235851,5.66454389 14.0018573,6.23342051 14.0000094,6.83554372 L14.0000094,6.83551007 Z" id="Shape" fill="#6C50BA" fill-rule="nonzero"/>
                                                        </g>
                                                    </g>
                                                </g>
                                            </svg>