<svg xmlns="http://www.w3.org/2000/svg" width="15" height="15" class="hf-productnav__feature-icon" viewBox="0 0 15 15">
                                            <g fill="none" fill-rule="evenodd">
                                                <path d="M0 0L15 0 15 15 0 15z"/>
                                                <path fill="#6C50BA" fill-rule="nonzero" d="M4.43 5.345c.29-.463.631-.891 1.018-1.277C7.44 2.075 10.28 1.508 12.57 2.43c.921 2.289.355 5.13-1.638 7.122-.396.396-.824.736-1.277 1.018l.088 1.495c.008.133-.08.253-.209.285l-2.567.642c-.083.02-.17.002-.238-.05-.067-.053-.106-.134-.106-.219v-1.766c0-.147-.058-.288-.162-.392L4.435 8.54c-.104-.104-.245-.162-.392-.162H2.277c-.085 0-.166-.04-.218-.106-.053-.068-.071-.155-.05-.238l.64-2.567c.033-.13.153-.217.286-.21l1.495.089zM8.19 6.81c.433.433 1.134.433 1.567 0 .433-.433.433-1.134 0-1.567-.433-.433-1.134-.433-1.567 0-.433.433-.433 1.134 0 1.567z"/>
                                            </g>
                                        </svg>