<svg xmlns="http://www.w3.org/2000/svg" width="15" height="15" class="hf-productnav__feature-icon" viewBox="0 0 15 15">
                                            <g fill="none" fill-rule="evenodd">
                                                <path d="M0 0L15 0 15 15 0 15z"/>
                                                <path fill="#1A7DFD" fill-rule="nonzero" d="M7.5 8.75v5h-5c0-2.761 2.239-5 5-5zm3.75 4.688l-1.837.965.35-2.045-1.485-1.449 2.054-.298.918-1.861.919 1.86 2.053.3-1.486 1.448.35 2.045-1.836-.966zM7.5 8.125c-2.072 0-3.75-1.678-3.75-3.75S5.428.625 7.5.625s3.75 1.678 3.75 3.75-1.678 3.75-3.75 3.75z"/>
                                            </g>
                                        </svg>